name C:\Users\u0101727\Documents\MyRepositories\upper-imu-dc\Results\main_tracking\Case_41\FLX01_linearAccelerations_groundFrame.mot
datacolumns 4
datarows 141
range 3.51000000 4.91000000
endheader 
time	radius_imu_x	radius_imu_y	radius_imu_z	
          3.51000000	         -0.01678968	          9.75361829	          0.29484691	
          3.52000000	         -0.05215930	          9.75335904	          0.31195186	
          3.53000000	         -0.08368708	          9.75423925	          0.31927827	
          3.54000000	         -0.11097824	          9.75637416	          0.31676728	
          3.55000000	         -0.13379994	          9.75980685	          0.30496117	
          3.56000000	         -0.15200197	          9.76449866	          0.28498741	
          3.57000000	         -0.16543575	          9.77032316	          0.25847590	
          3.58000000	         -0.17389926	          9.77705864	          0.22741486	
          3.59000000	         -0.17712051	          9.78437884	          0.19396344	
          3.60000000	         -0.17476627	          9.79185780	          0.16024800	
          3.61000000	         -0.16645697	          9.79900169	          0.12817465	
          3.62000000	         -0.15178319	          9.80529858	          0.09928937	
          3.63000000	         -0.13033012	          9.81026400	          0.07469981	
          3.64000000	         -0.10171028	          9.81346803	          0.05504912	
          3.65000000	         -0.06559651	          9.81455945	          0.04052794	
          3.66000000	         -0.02174129	          9.81328648	          0.03092207	
          3.67000000	          0.02997260	          9.80950364	          0.02568666	
          3.68000000	          0.08949805	          9.80315992	          0.02407610	
          3.69000000	          0.15658509	          9.79427365	          0.02529223	
          3.70000000	          0.23070661	          9.78291299	          0.02858638	
          3.71000000	          0.31105598	          9.76919770	          0.03331198	
          3.72000000	          0.39658654	          9.75332210	          0.03891118	
          3.73000000	          0.48607391	          9.73556679	          0.04486109	
          3.74000000	          0.57817158	          9.71628326	          0.05062148	
          3.75000000	          0.67145649	          9.69585144	          0.05560631	
          3.76000000	          0.76447369	          9.67463073	          0.05918143	
          3.77000000	          0.85577918	          9.65291394	          0.06068347	
          3.78000000	          0.94398008	          9.63088706	          0.05945316	
          3.79000000	          1.02777600	          9.60861299	          0.05486905	
          3.80000000	          1.10600540	          9.58606363	          0.04636612	
          3.81000000	          1.17769923	          9.56319458	          0.03344765	
          3.82000000	          1.24213115	          9.54002505	          0.01570093	
          3.83000000	          1.29884516	          9.51667649	         -0.00715046	
          3.84000000	          1.34765563	          9.49335651	         -0.03516937	
          3.85000000	          1.38863811	          9.47030554	         -0.06813465	
          3.86000000	          1.42212420	          9.44773601	         -0.10550726	
          3.87000000	          1.44868638	          9.42578757	         -0.14643470	
          3.88000000	          1.46908481	          9.40449314	         -0.18977561	
          3.89000000	          1.48420750	          9.38375689	         -0.23415817	
          3.90000000	          1.49500906	          9.36334929	         -0.27805192	
          3.91000000	          1.50248998	          9.34292108	         -0.31986401	
          3.92000000	          1.50767274	          9.32203347	         -0.35803134	
          3.93000000	          1.51152846	          9.30018072	         -0.39108344	
          3.94000000	          1.51485010	          9.27679034	         -0.41768415	
          3.95000000	          1.51813270	          9.25123863	         -0.43667485	
          3.96000000	          1.52151332	          9.22292127	         -0.44713700	
          3.97000000	          1.52476503	          9.19136578	         -0.44846902	
          3.98000000	          1.52730872	          9.15634098	         -0.44045591	
          3.99000000	          1.52822456	          9.11793583	         -0.42330761	
          4.00000000	          1.52627287	          9.07659652	         -0.39765379	
          4.01000000	          1.51994572	          9.03311886	         -0.36449285	
          4.02000000	          1.50755830	          8.98860554	         -0.32509420	
          4.03000000	          1.48736214	          8.94439461	         -0.28085777	
          4.04000000	          1.45764636	          8.90196520	         -0.23315613	
          4.05000000	          1.41683269	          8.86282914	         -0.18318046	
          4.06000000	          1.36355598	          8.82843884	         -0.13184730	
          4.07000000	          1.29676409	          8.80011042	         -0.07978565	
          4.08000000	          1.21582523	          8.77896402	         -0.02741101	
          4.09000000	          1.12065881	          8.76586269	          0.02496613	
          4.10000000	          1.01186405	          8.76134274	          0.07705713	
          4.11000000	          0.89081902	          8.76553107	          0.12857869	
          4.12000000	          0.75971058	          8.77807427	          0.17929354	
          4.13000000	          0.62147610	          8.79812385	          0.22907019	
          4.14000000	          0.47966021	          8.82439715	          0.27792000	
          4.15000000	          0.33820279	          8.85528369	          0.32598488	
          4.16000000	          0.20118486	          8.88895098	          0.37347289	
          4.17000000	          0.07256513	          8.92342585	          0.42055442	
          4.18000000	         -0.04405600	          8.95666147	          0.46723529	
          4.19000000	         -0.14562571	          8.98662511	          0.51322135	
          4.20000000	         -0.22980488	          9.01142632	          0.55778819	
          4.21000000	         -0.29513791	          9.02946182	          0.59969139	
          4.22000000	         -0.34122623	          9.03954854	          0.63716721	
          4.23000000	         -0.36885730	          9.04103009	          0.66806353	
          4.24000000	         -0.38002163	          9.03385806	          0.69011839	
          4.25000000	         -0.37777881	          9.01865568	          0.70136465	
          4.26000000	         -0.36598559	          8.99674301	          0.70057801	
          4.27000000	         -0.34891218	          8.97006628	          0.68761957	
          4.28000000	         -0.33076039	          8.94099196	          0.66353286	
          4.29000000	         -0.31515181	          8.91200333	          0.63038576	
          4.30000000	         -0.30473448	          8.88538586	          0.59098114	
          4.31000000	         -0.30102621	          8.86296235	          0.54855434	
          4.32000000	         -0.30447902	          8.84589688	          0.50648210	
          4.33000000	         -0.31465999	          8.83457228	          0.46797451	
          4.34000000	         -0.33047957	          8.82856208	          0.43575520	
          4.35000000	         -0.35045097	          8.82672851	          0.41178553	
          4.36000000	         -0.37293852	          8.82743513	          0.39707564	
          4.37000000	         -0.39634176	          8.82881745	          0.39159886	
          4.38000000	         -0.41922657	          8.82906159	          0.39433519	
          4.39000000	         -0.44043680	          8.82665173	          0.40347141	
          4.40000000	         -0.45917068	          8.82053806	          0.41674204	
          4.41000000	         -0.47496360	          8.81015815	          0.43182555	
          4.42000000	         -0.48756151	          8.79526871	          0.44667432	
          4.43000000	         -0.49676333	          8.77565346	          0.45972072	
          4.44000000	         -0.50234361	          8.75087605	          0.46998379	
          4.45000000	         -0.50411771	          8.72022883	          0.47709825	
          4.46000000	         -0.50213872	          8.68291136	          0.48127056	
          4.47000000	         -0.49693903	          8.63835098	          0.48319664	
          4.48000000	         -0.48967912	          8.58651397	          0.48398931	
          4.49000000	         -0.48209616	          8.52806203	          0.48510814	
          4.50000000	         -0.47625911	          8.46428984	          0.48823521	
          4.51000000	         -0.47426621	          8.39692485	          0.49510149	
          4.52000000	         -0.47804235	          8.32794221	          0.50732201	
          4.53000000	         -0.48926346	          8.25948430	          0.52622916	
          4.54000000	         -0.50936213	          8.19383155	          0.55264027	
          4.55000000	         -0.53948836	          8.13342906	          0.58667719	
          4.56000000	         -0.58025895	          8.08053587	          0.62745602	
          4.57000000	         -0.63236034	          8.03805957	          0.67361896	
          4.58000000	         -0.69547189	          8.00823860	          0.72242952	
          4.59000000	         -0.76902250	          7.99332904	          0.77103161	
          4.60000000	         -0.85206382	          7.99538023	          0.81647076	
          4.61000000	         -0.94327420	          8.01617713	          0.85608560	
          4.62000000	         -1.04094906	          8.05708736	          0.88777294	
          4.63000000	         -1.14297858	          8.11882543	          0.91006229	
          4.64000000	         -1.24689129	          8.20120549	          0.92200732	
          4.65000000	         -1.35000828	          8.30300678	          0.92304237	
          4.66000000	         -1.44968034	          8.42201615	          0.91294838	
          4.67000000	         -1.54352063	          8.55522292	          0.89191571	
          4.68000000	         -1.62955619	          8.69909557	          0.86057475	
          4.69000000	         -1.70628069	          8.84986625	          0.81991258	
          4.70000000	         -1.77263103	          9.00376397	          0.77110110	
          4.71000000	         -1.82792290	          9.15717411	          0.71533295	
          4.72000000	         -1.87177589	          9.30674023	          0.65374316	
          4.73000000	         -1.90403868	          9.44943669	          0.58739149	
          4.74000000	         -1.92470694	          9.58264119	          0.51718859	
          4.75000000	         -1.93383064	          9.70424575	          0.44367549	
          4.76000000	         -1.93142927	          9.81282387	          0.36670886	
          4.77000000	         -1.91743936	          9.90780554	          0.28521629	
          4.78000000	         -1.89170044	          9.98956657	          0.19716732	
          4.79000000	         -1.85396720	         10.05936309	          0.09979735	
          4.80000000	         -1.80393732	         10.11910850	         -0.00998400	
          4.81000000	         -1.74129512	         10.17104816	         -0.13511548	
          4.82000000	         -1.66576105	         10.21741608	         -0.27795864	
          4.83000000	         -1.57711362	         10.26015415	         -0.44003885	
          4.84000000	         -1.47518693	         10.30075854	         -0.62198725	
          4.85000000	         -1.35989027	         10.34026534	         -0.82361314	
          4.86000000	         -1.23127905	         10.37936184	         -1.04401784	
          4.87000000	         -1.08965319	         10.41860414	         -1.28169797	
          4.88000000	         -0.93563361	         10.45868316	         -1.53462229	
          4.89000000	         -0.77018678	         10.50063403	         -1.80025857	
          4.90000000	         -0.59459939	         10.54590585	         -2.07552446	
          4.91000000	         -0.41041800	         10.59628146	         -2.35670584	
